<svg width="172" height="50" viewBox="0 0 172 50" fill="none" xmlns="http://www.w3.org/2000/svg">
<mask id="mask0_8602_1934" style="mask-type:luminance" maskUnits="userSpaceOnUse" x="0" y="0" width="172" height="50">
<path d="M171.046 0H0V49.0382H171.046V0Z" fill="white"/>
</mask>
<g mask="url(#mask0_8602_1934)">
<path d="M42.6748 29.63C43.545 28.1487 45.7064 28.1487 46.568 29.63L55.8164 45.4276C56.6866 46.9111 55.5961 48.7551 53.8644 48.7551H35.3698C33.638 48.7551 32.5583 46.9089 33.4199 45.4276L42.6683 29.63H42.6769H42.6748Z" fill="#FF394A"/>
<path d="M37.0883 19.1101C37.9304 17.6375 37.9304 15.8193 37.0883 14.338L29.5069 1.11219C28.6561 -0.369103 26.5335 -0.369103 25.6806 1.11219L0.299877 45.4193C-0.550895 46.9006 0.509332 48.7577 2.21305 48.7577H17.3715C19.0644 48.7577 20.6234 47.8486 21.4656 46.3759L37.0818 19.1101H37.0905H37.0883Z" fill="#FF394A"/>
<path d="M80.4627 28.3477C85.9107 28.3477 89.94 32.1783 89.94 38.693C89.94 45.2076 85.874 49.0383 80.3461 49.0383C77.3058 49.0383 75.1335 47.7751 73.8703 45.998L73.3974 48.8008H69.6855V21.1614H73.9502V31.5456C75.2933 29.7685 77.3468 28.3477 80.4649 28.3477H80.4627ZM79.7134 45.4452C83.2267 45.4452 85.5566 42.6812 85.5566 38.693C85.5566 34.7047 83.2267 31.9796 79.7134 31.9796C76.2002 31.9796 73.9092 34.7436 73.9092 38.6519C73.9092 42.5603 76.2002 45.443 79.7134 45.443V45.4452Z" fill="#FF394A"/>
<path d="M107.618 38.9695V28.5853H111.883V48.8009H108.132L107.659 46.2745C106.435 47.7752 104.539 49.0384 101.579 49.0384C97.4328 49.0384 93.7598 46.8273 93.7598 40.1139V28.5853H98.0633V39.6799C98.0633 43.273 99.564 45.2467 102.565 45.2467C105.567 45.2467 107.62 42.9556 107.62 38.9695H107.618Z" fill="#FF394A"/>
<path d="M123.751 25.4647C122.172 25.4647 120.907 24.2793 120.907 22.6209C120.907 20.9626 122.17 19.8182 123.751 19.8182C125.332 19.8182 126.634 21.0036 126.634 22.6209C126.634 24.2382 125.37 25.4647 123.751 25.4647ZM125.921 45.0498H131.686V48.8005H115.774V45.0498H121.618V32.3357H115.774V28.585H125.921V45.0498Z" fill="#FF394A"/>
<path d="M166.782 31.2692V21.1614H171.047V48.8008H167.335L166.821 45.7604C165.519 47.5376 163.424 49.0383 160.306 49.0383C154.817 49.0383 150.829 45.1688 150.829 38.693C150.829 32.2172 154.895 28.3477 160.345 28.3477C163.386 28.3477 165.478 29.572 166.78 31.2692H166.782ZM161.019 45.4452C164.532 45.4452 166.823 42.6812 166.823 38.7729C166.823 34.8645 164.532 31.9818 161.019 31.9818C157.506 31.9818 155.176 34.7457 155.176 38.6951C155.176 42.6445 157.506 45.4473 161.019 45.4473V45.4452Z" fill="#FF394A"/>
<path d="M149.87 44.9873V48.7165H133.526V44.9873H139.598V25.2101L133.526 27.2183V23.4697L138.72 21.4811H143.846V44.996H149.881L149.872 44.9873H149.87Z" fill="#FF394A"/>
</g>
</svg>
